{"title":"We're The Millers 2013 WEBRiP XViD UNiQUE","uid":8837388,"size":1443678208,"categoryP":"video","categoryS":"movies","magnet":"?xt=urn:btih:c00406d03c1c922daf2d68fd96cef41bb7da0da1&amp;dn=We%5C%27re+The+Millers+2013+WEBRiP+XViD+UNiQUE&amp;tr=udp%3A%2F%2Ftracker.openbittorrent.com%3A80&amp;tr=udp%3A%2F%2Fopen.demonii.com%3A1337&amp;tr=udp%3A%2F%2Ftracker.coppersurfer.tk%3A6969&amp;tr=udp%3A%2F%2Fexodus.desync.com%3A6969","seeders":3,"leechers":0,"uploader":"TeX","files":3,"time":1377157171,"description":"[img]http://i.perezhilton.com/wp-content/uploads/2013/06/were-the-millers-posters-jennifer-aniston-1__oPt.jpg[/img]\n\n\nFormat : AVI\nFormat/Info : Audio Video Interleave\nFile size : 1.33 GiB\nDuration : 1h 44mn\nOverall bit rate : 1 813 Kbps\nWriting application : VirtualDubMod 1.5.10.2 (build 2540/release)\nWriting library : VirtualDubMod build 2540/release\n\nVideo\nID : 0\nFormat : MPEG-4 Visual\nFormat profile : Advanced Simple@L5\nFormat settings, BVOP : 2\nFormat settings, QPel : No\nFormat settings, GMC : No warppoints\nFormat settings, Matrix : Default (H.263)\nMuxing mode : Packed bitstream\nCodec ID : XVID\nCodec ID/Hint : XviD\nDuration : 1h 44mn\nBit rate : 1 612 Kbps\nWidth : 720 pixels\nHeight : 288 pixels\nDisplay aspect ratio : 2.500\nFrame rate : 25.000 fps\nColor space : YUV\nChroma subsampling : 4:2:0\nBit depth : 8 bits\nScan type : Progressive\nCompression mode : Lossy\nBits/(Pixel*Frame) : 0.311\nStream size : 1.18 GiB (89%)\nWriting library : XviD 64\n\nAudio\nID : 1\nFormat : AC-3\nFormat/Info : Audio Coding 3\nMode extension : CM (complete main)\nFormat settings, Endianness : Big\nCodec ID : 2000\nDuration : 1h 44mn\nBit rate mode : Constant\nBit rate : 192 Kbps\nChannel(s) : 2 channels\nChannel positions : Front: L R\nSampling rate : 44.1 KHz\nBit depth : 16 bits\nCompression mode : Lossy\nStream size : 144 MiB (11%)\nAlignment : Split accross interleaves\nInterleave, duration : 40 ms (1.00 video frame)\nInterleave, preload duration : 500 ms\n\n &lt;a href=&quot;\nhttp://www.imdb.com/title/tt1723121&quot; rel=&quot;nofollow&quot; target=&quot;_NEW&quot;&gt;\nhttp://www.imdb.com/title/tt1723121&lt;/a&gt;\n\n\n\nStoryline\n\nAfter being robbed of a week's take, small-time pot dealer David is forced by his boss to go to Mexico to pick up a load of marijuana. In order to improve his odds of making it past the border, David asks the broke stripper Rose and two local teenagers to join him and pretend they're on a family holiday.\n\n\n\n\nSource Used SmY - Thanks\n\n\n\n\n\nGreets now going out to !\n\n\n\n\n\n\n\nJUSTiCE,MiLLENiUM,KiSSMYACE,FooKaS and the rest can just KMA :lol:\n\n\n\n\nResized,sharpened and not alot more\n","torrent":{"xt":"urn:btih:c00406d03c1c922daf2d68fd96cef41bb7da0da1","amp;dn":"We%5C%27re+The+Millers+2013+WEBRiP+XViD+UNiQUE","amp;tr":["udp%3A%2F%2Ftracker.openbittorrent.com%3A80","udp%3A%2F%2Fopen.demonii.com%3A1337","udp%3A%2F%2Ftracker.coppersurfer.tk%3A6969","udp%3A%2F%2Fexodus.desync.com%3A6969"],"infoHash":"c00406d03c1c922daf2d68fd96cef41bb7da0da1","infoHashBuffer":{"type":"Buffer","data":[192,4,6,208,60,28,146,45,175,45,104,253,150,206,244,27,183,218,13,161]},"announce":[],"urlList":[]}}